<svg xmlns="http://www.w3.org/2000/svg" viewBox="0 0 1200 750" role="img" aria-labelledby="title desc">
  <title id="title">Sternenpfad Abenteuer</title>
  <desc id="desc">Neutrale Abenteuerlandschaft mit Karte, Torbogen, Laternen und Sternenpfad.</desc>
  <defs>
    <linearGradient id="bg" x1="0" x2="1" y1="0" y2="1"><stop stop-color="#fff7df"/><stop offset=".5" stop-color="#f0d49d"/><stop offset="1" stop-color="#b7c5bd"/></linearGradient>
    <radialGradient id="glow" cx=".62" cy=".24" r=".48"><stop stop-color="#fffbe8"/><stop offset=".6" stop-color="#ffd98f" stop-opacity=".55"/><stop offset="1" stop-color="#ffd98f" stop-opacity="0"/></radialGradient>
    <filter id="paper"><feTurbulence type="fractalNoise" baseFrequency=".018" numOctaves="4" seed="61"/><feComponentTransfer><feFuncA type="table" tableValues="0 .16"/></feComponentTransfer></filter>
    <style>.spark{animation:spark 2.8s ease-in-out infinite}.walk{animation:walk 6s ease-in-out infinite}@keyframes spark{50%{opacity:.35;transform:scale(.82)}}@keyframes walk{50%{transform:translateY(-14px) translateX(12px)}}</style>
  </defs>
  <rect width="1200" height="750" fill="url(#bg)"/><rect width="1200" height="750" filter="url(#paper)" opacity=".76"/><circle cx="742" cy="172" r="330" fill="url(#glow)"/>
  <path d="M0 530 L190 360 L318 502 L470 305 L640 520 Z" fill="#9aa982"/><path d="M502 530 L724 298 L934 530 Z" fill="#879d82"/><path d="M815 530 L1045 345 L1200 492 L1200 750 L0 750 L0 530 Z" fill="#778f78"/>
  <path d="M0 620 C210 550 360 645 555 580 C745 516 930 635 1200 545 L1200 750 L0 750 Z" fill="#c0a76f"/>
  <path d="M115 690 C280 545 410 635 545 505 C690 365 810 445 1020 285" fill="none" stroke="#fff8d6" stroke-width="34" stroke-linecap="round" stroke-dasharray="2 58"/>
  <path d="M115 690 C280 545 410 635 545 505 C690 365 810 445 1020 285" fill="none" stroke="#8a6b38" stroke-width="5" stroke-linecap="round" stroke-dasharray="22 28" opacity=".55"/>
  <g transform="translate(500 278)"><path d="M0 270 L0 118 C0 36 70 -12 140 20 C206 52 224 128 224 270" fill="none" stroke="#7b6042" stroke-width="34" stroke-linecap="round"/><path d="M40 270 L40 130 C40 82 82 54 128 72 C174 90 184 145 184 270" fill="#f6dfad" fill-opacity=".6" stroke="#fff7df" stroke-width="8"/></g>
  <g class="walk" transform="translate(246 392) rotate(-8)"><path d="M0 0 C76 -34 142 -20 202 26 L180 168 C108 130 50 138 -22 184 Z" fill="#fff1c7" stroke="#8a6b38" stroke-width="8" stroke-linejoin="round"/><path d="M42 48 C78 34 112 40 150 62 M36 92 C72 78 120 86 158 110" fill="none" stroke="#c38c36" stroke-width="6" stroke-linecap="round"/><path d="M58 132 C92 108 134 112 158 146" fill="none" stroke="#ba5d7b" stroke-width="6" stroke-linecap="round"/></g>
  <g fill="#fff8d6" stroke="#d59335" stroke-width="4"><path class="spark" d="M190 170 L204 202 L238 205 L212 226 L220 260 L190 242 L160 260 L168 226 L142 205 L176 202 Z"/><path class="spark" style="animation-delay:.6s" d="M970 145 L982 172 L1012 174 L990 192 L996 222 L970 206 L944 222 L950 192 L928 174 L958 172 Z"/><path class="spark" style="animation-delay:1.1s" d="M845 425 L855 448 L880 450 L862 466 L868 491 L845 478 L822 491 L828 466 L810 450 L835 448 Z"/></g>
  <g transform="translate(885 500)" stroke-linecap="round" stroke-linejoin="round"><path d="M0 140 L0 40" stroke="#7b6042" stroke-width="10"/><path d="M-36 30 L36 30 L22 96 L-22 96 Z" fill="#fff4c7" stroke="#7b6042" stroke-width="7"/><circle cx="0" cy="62" r="18" fill="#ffd36f"/></g>
</svg>
