<svg xmlns="http://www.w3.org/2000/svg" viewBox="0 0 1200 750" role="img" aria-labelledby="title desc">
  <title id="title">Buchstabenlichtung</title>
  <desc id="desc">Warme Kinderbuchszene mit offenem Buch, schwebenden Buchstaben und Pflanzen.</desc>
  <defs>
    <linearGradient id="sky" x1="0" x2="1" y1="0" y2="1"><stop stop-color="#fff6df"/><stop offset=".52" stop-color="#ffe0b3"/><stop offset="1" stop-color="#f6b36f"/></linearGradient>
    <radialGradient id="sun" cx=".28" cy=".22" r=".45"><stop stop-color="#fffdf2"/><stop offset=".55" stop-color="#ffd98f" stop-opacity=".68"/><stop offset="1" stop-color="#ffd98f" stop-opacity="0"/></radialGradient>
    <filter id="paper"><feTurbulence type="fractalNoise" baseFrequency=".018" numOctaves="4" seed="14"/><feColorMatrix type="saturate" values=".18"/><feComponentTransfer><feFuncA type="table" tableValues="0 .18"/></feComponentTransfer></filter>
    <filter id="softShadow" x="-20%" y="-20%" width="140%" height="140%"><feDropShadow dx="0" dy="16" stdDeviation="14" flood-color="#8b5a2b" flood-opacity=".18"/></filter>
    <style>
      .float{animation:float 5.6s ease-in-out infinite}.float2{animation:float 6.4s ease-in-out infinite reverse}.page{animation:page 4.8s ease-in-out infinite}
      @keyframes float{50%{transform:translateY(-18px) rotate(3deg)}}@keyframes page{50%{transform:skewY(-2deg) translateY(-4px)}}
    </style>
  </defs>
  <rect width="1200" height="750" fill="url(#sky)"/><rect width="1200" height="750" filter="url(#paper)" opacity=".75"/><circle cx="300" cy="150" r="290" fill="url(#sun)"/>
  <path d="M0 575 C150 515 265 565 398 520 C560 465 680 560 820 505 C990 438 1085 512 1200 468 L1200 750 L0 750 Z" fill="#91c783"/>
  <path d="M0 645 C180 585 332 642 505 602 C704 555 862 632 1200 560 L1200 750 L0 750 Z" fill="#68a96f"/>
  <g stroke="#ffffff" stroke-linecap="round" opacity=".42"><path d="M90 520 C195 470 320 502 410 450" stroke-width="14"/><path d="M770 250 C870 188 988 210 1095 150" stroke-width="11"/></g>
  <g filter="url(#softShadow)" transform="translate(330 328)">
    <path class="page" d="M0 55 C118 10 225 22 330 80 L330 278 C210 218 112 214 0 264 Z" fill="#fff9ec" stroke="#9b6233" stroke-width="8" stroke-linejoin="round"/>
    <path class="page" d="M330 80 C448 12 560 12 675 58 L675 258 C546 225 446 222 330 278 Z" fill="#fff4df" stroke="#b8614e" stroke-width="8" stroke-linejoin="round"/>
    <path d="M330 82 L330 278" stroke="#6b4a32" stroke-width="6" stroke-linecap="round"/>
    <path d="M70 114 C140 96 202 102 272 132 M68 166 C150 148 214 158 280 188" fill="none" stroke="#c97832" stroke-width="7" stroke-linecap="round" opacity=".45"/>
    <path d="M405 112 C482 88 552 88 620 116 M405 165 C492 146 560 154 623 184" fill="none" stroke="#b8614e" stroke-width="7" stroke-linecap="round" opacity=".42"/>
  </g>
  <g font-family="Georgia, serif" font-weight="700" text-anchor="middle">
    <text class="float" x="218" y="308" font-size="118" fill="#c96f2d">A</text><text class="float2" x="935" y="270" font-size="96" fill="#7b8fc9">M</text><text class="float" x="790" y="185" font-size="68" fill="#d9899b">ei</text><text class="float2" x="158" y="455" font-size="72" fill="#4e9a76">sch</text>
  </g>
  <g stroke-linecap="round" stroke-linejoin="round">
    <path d="M138 650 C142 588 140 530 150 468" fill="none" stroke="#3d7a4d" stroke-width="9"/><path d="M150 536 C91 497 100 430 158 426 C208 454 202 512 150 536Z" fill="#9bd58c" stroke="#3d7a4d" stroke-width="6"/><path d="M151 573 C220 530 244 458 188 437 C133 468 117 530 151 573Z" fill="#7ccf91" stroke="#3d7a4d" stroke-width="6"/>
    <path d="M1012 642 C1018 583 1010 526 1028 470" fill="none" stroke="#3d7a4d" stroke-width="9"/><path d="M1024 532 C965 496 976 432 1031 425 C1080 452 1074 506 1024 532Z" fill="#a7db89" stroke="#3d7a4d" stroke-width="6"/>
  </g>
</svg>
