<svg xmlns="http://www.w3.org/2000/svg" width="680" height="600" viewBox="0 0 340 300" fill="none" role="img" aria-label="Handgezeichnete Montessori Flow Premium Illustration">
  <defs>
    <filter id="paper" x="-20%" y="-20%" width="140%" height="140%">
      <feTurbulence type="fractalNoise" baseFrequency="0.72" numOctaves="3" seed="8"/>
      <feColorMatrix type="saturate" values="0"/>
      <feComponentTransfer><feFuncA type="table" tableValues="0 0.12"/></feComponentTransfer>
      <feBlend in="SourceGraphic" mode="multiply"/>
    </filter>
    <filter id="bleed" x="-16%" y="-16%" width="132%" height="132%">
      <feTurbulence type="fractalNoise" baseFrequency="0.035" numOctaves="2" seed="11" result="noise"/>
      <feDisplacementMap in="SourceGraphic" in2="noise" scale="3.5"/>
    </filter>
    <filter id="shadow" x="-24%" y="-24%" width="148%" height="148%">
      <feDropShadow dx="0" dy="10" stdDeviation="10" flood-color="#6b5f55" flood-opacity="0.13"/>
    </filter>
    <radialGradient id="washA" cx="42%" cy="35%" r="70%">
      <stop offset="0%" stop-color="#fff" stop-opacity="0.82"/>
      <stop offset="48%" stop-color="#c4b5fd" stop-opacity="0.62"/>
      <stop offset="100%" stop-color="#f9a8d4" stop-opacity="0.28"/>
    </radialGradient>
    <radialGradient id="washB" cx="58%" cy="35%" r="70%">
      <stop offset="0%" stop-color="#fff" stop-opacity="0.7"/>
      <stop offset="58%" stop-color="#fde68a" stop-opacity="0.58"/>
      <stop offset="100%" stop-color="#c4b5fd" stop-opacity="0.22"/>
    </radialGradient>
    <linearGradient id="thread" x1="65" y1="46" x2="285" y2="230">
      <stop stop-color="#db2777"/>
      <stop offset="0.42" stop-color="#7c3aed"/>
      <stop offset="1" stop-color="#0284c7"/>
    </linearGradient>
  </defs>

  <g filter="url(#shadow)">
    <path d="M54 52C92 35 234 32 292 54C313 95 314 205 290 246C228 270 88 266 48 244C30 184 31 94 54 52Z" fill="#fffaf0" stroke="#eadfca" stroke-width="3" filter="url(#paper)"/>
    <path d="M69 70C114 57 225 55 274 72C288 111 286 194 273 229C216 244 101 243 68 226C53 172 54 110 69 70Z" stroke="#fff" stroke-width="2" opacity="0.7"/>
  </g>
  <g filter="url(#bleed)">
    <path d="M71 91C107 55 233 49 276 88C293 124 287 204 262 232C205 255 95 249 62 222C42 175 42 119 71 91Z" fill="url(#washA)" opacity="0.5"/>
    <path d="M106 68C151 51 236 65 260 108C230 89 154 83 100 103Z" fill="url(#washB)" opacity="0.38"/>
  </g>

  <path d="M91 187C122 109 202 100 242 177" stroke="url(#thread)" stroke-width="5" stroke-linecap="round" opacity="0.55"/>
  <path d="M79 123C68 93 96 70 122 80C191 85 171 174 128 165C94 173 63 150 79 123Z" fill="url(#washA)" stroke="#6b5f55" stroke-width="2.4" stroke-linecap="round" stroke-linejoin="round"/>
  <path d="M176 128C164 97 194 74 222 83C292 88 270 178 229 169C194 176 160 154 176 128Z" fill="url(#washB)" stroke="#6b5f55" stroke-width="2.4" stroke-linecap="round" stroke-linejoin="round"/>
  <path d="M113 172C98 145 134 127 171 130C233 132 239 198 177 209C134 215 97 197 113 172Z" fill="#fff" stroke="#6b5f55" stroke-width="2.4" opacity="0.88"/>

  <g stroke-linecap="round" stroke-linejoin="round">
    <path d="M92 139C115 132 135 136 154 148V204C131 191 113 190 92 199Z" fill="#fff7ed" stroke="#d97706" stroke-width="2.6"/>
    <path d="M154 148C176 135 195 133 217 140V199C194 191 176 192 154 204Z" fill="#fff1f2" stroke="#db2777" stroke-width="2.6"/>
    <path d="M154 150V204" stroke="#6b5f55" stroke-width="2"/>
    <path d="M108 157C121 154 131 155 143 160M107 171C122 168 131 170 142 175" stroke="#d97706" stroke-width="1.8" opacity="0.55"/>
    <path d="M169 158C183 153 194 153 207 157M169 172C183 168 195 168 208 173" stroke="#db2777" stroke-width="1.8" opacity="0.5"/>
  </g>

  <g transform="translate(193 143)">
    <circle cx="0" cy="0" r="7.4" fill="#fde68a" stroke="#d97706" stroke-width="1.6"/>
    <circle cx="18" cy="0" r="7.4" fill="#fde68a" stroke="#d97706" stroke-width="1.6"/>
    <circle cx="36" cy="0" r="7.4" fill="#fde68a" stroke="#d97706" stroke-width="1.6"/>
    <circle cx="0" cy="18" r="7.4" fill="#fde68a" stroke="#d97706" stroke-width="1.6"/>
    <circle cx="18" cy="18" r="7.4" fill="#fde68a" stroke="#d97706" stroke-width="1.6"/>
    <circle cx="36" cy="18" r="7.4" fill="#fde68a" stroke="#d97706" stroke-width="1.6"/>
    <circle cx="0" cy="36" r="7.4" fill="#fde68a" stroke="#d97706" stroke-width="1.6"/>
    <circle cx="18" cy="36" r="7.4" fill="#fde68a" stroke="#d97706" stroke-width="1.6"/>
    <circle cx="36" cy="36" r="7.4" fill="#fde68a" stroke="#d97706" stroke-width="1.6"/>
    <path d="M-8-9L45 47" stroke="#fff" stroke-width="2" opacity="0.45" stroke-linecap="round"/>
  </g>

  <g stroke-linecap="round" stroke-linejoin="round">
    <path d="M128 86C141 67 158 65 171 85C183 65 202 67 214 86C215 111 196 129 171 143C146 129 127 111 128 86Z" fill="#f9a8d4" stroke="#db2777" stroke-width="3"/>
    <path d="M154 97C164 90 177 91 187 98" stroke="#fff" stroke-width="2.4" opacity="0.7"/>
    <g transform="translate(69 209) scale(.9)">
      <path d="M0 34C1 20 1 8 0-4" stroke="#16a34a" stroke-width="3"/>
      <path d="M0 17C-17 8-20-8-5-14C9-9 11 6 0 17Z" fill="#86efac" stroke="#16a34a" stroke-width="2"/>
      <path d="M1 22C18 9 25-7 10-14C-4-7-7 9 1 22Z" fill="#6ee7b7" stroke="#16a34a" stroke-width="2"/>
    </g>
    <g transform="translate(271 211) scale(.8)">
      <path d="M0 34C1 20 1 8 0-4" stroke="#16a34a" stroke-width="3"/>
      <path d="M0 17C-17 8-20-8-5-14C9-9 11 6 0 17Z" fill="#86efac" stroke="#16a34a" stroke-width="2"/>
      <path d="M1 22C18 9 25-7 10-14C-4-7-7 9 1 22Z" fill="#6ee7b7" stroke="#16a34a" stroke-width="2"/>
    </g>
  </g>
  <path d="M46 246C101 269 237 270 294 240" stroke="#fff" stroke-width="2.5" opacity="0.54" stroke-linecap="round"/>
  <path d="M54 56C102 39 232 37 291 57" stroke="#fff" stroke-width="2" opacity="0.48" stroke-linecap="round"/>
</svg>
